<svg xmlns="http://www.w3.org/2000/svg" viewBox="0 0 1200 750" width="1200" height="750" role="img">
<defs>
  <linearGradient id="bg" x1="0" y1="0" x2="1" y2="1">
    <stop offset="0" stop-color="#1D2537"/><stop offset="1" stop-color="#11192B"/>
  </linearGradient>
  <radialGradient id="glow" cx="50%" cy="46%" r="58%">
    <stop offset="0" stop-color="#344361" stop-opacity=".55"/><stop offset="1" stop-color="#344361" stop-opacity="0"/>
  </radialGradient>
</defs>
<rect width="1200" height="750" fill="url(#bg)"/>
<rect width="1200" height="750" fill="url(#glow)"/>
<g fill="none" stroke="#C5CDDA" stroke-width=".8" opacity="0.16"><ellipse cx="980" cy="130" rx="300.0" ry="120.0" transform="rotate(0.0 980 130)"/><ellipse cx="980" cy="130" rx="298.2" ry="117.1" transform="rotate(8.2 980 130)"/><ellipse cx="980" cy="130" rx="296.4" ry="114.2" transform="rotate(16.4 980 130)"/><ellipse cx="980" cy="130" rx="294.6" ry="111.3" transform="rotate(24.5 980 130)"/><ellipse cx="980" cy="130" rx="292.8" ry="108.4" transform="rotate(32.7 980 130)"/><ellipse cx="980" cy="130" rx="291.0" ry="105.5" transform="rotate(40.9 980 130)"/><ellipse cx="980" cy="130" rx="289.2" ry="102.6" transform="rotate(49.1 980 130)"/><ellipse cx="980" cy="130" rx="287.4" ry="99.7" transform="rotate(57.3 980 130)"/><ellipse cx="980" cy="130" rx="285.6" ry="96.8" transform="rotate(65.5 980 130)"/><ellipse cx="980" cy="130" rx="283.8" ry="93.9" transform="rotate(73.6 980 130)"/><ellipse cx="980" cy="130" rx="282.0" ry="91.0" transform="rotate(81.8 980 130)"/><ellipse cx="980" cy="130" rx="280.2" ry="88.1" transform="rotate(90.0 980 130)"/><ellipse cx="980" cy="130" rx="278.4" ry="85.2" transform="rotate(98.2 980 130)"/><ellipse cx="980" cy="130" rx="276.6" ry="82.3" transform="rotate(106.4 980 130)"/><ellipse cx="980" cy="130" rx="274.8" ry="79.4" transform="rotate(114.5 980 130)"/><ellipse cx="980" cy="130" rx="273.0" ry="76.5" transform="rotate(122.7 980 130)"/><ellipse cx="980" cy="130" rx="271.2" ry="73.6" transform="rotate(130.9 980 130)"/><ellipse cx="980" cy="130" rx="269.4" ry="70.7" transform="rotate(139.1 980 130)"/><ellipse cx="980" cy="130" rx="267.6" ry="67.8" transform="rotate(147.3 980 130)"/><ellipse cx="980" cy="130" rx="265.8" ry="64.9" transform="rotate(155.5 980 130)"/><ellipse cx="980" cy="130" rx="264.0" ry="62.0" transform="rotate(163.6 980 130)"/><ellipse cx="980" cy="130" rx="262.2" ry="59.1" transform="rotate(171.8 980 130)"/></g>
<g fill="none" stroke="#C5CDDA" stroke-width=".8" opacity="0.12"><ellipse cx="180" cy="690" rx="220.0" ry="90.0" transform="rotate(0.0 180 690)"/><ellipse cx="180" cy="690" rx="218.2" ry="87.1" transform="rotate(11.3 180 690)"/><ellipse cx="180" cy="690" rx="216.4" ry="84.2" transform="rotate(22.5 180 690)"/><ellipse cx="180" cy="690" rx="214.6" ry="81.3" transform="rotate(33.8 180 690)"/><ellipse cx="180" cy="690" rx="212.8" ry="78.4" transform="rotate(45.0 180 690)"/><ellipse cx="180" cy="690" rx="211.0" ry="75.5" transform="rotate(56.3 180 690)"/><ellipse cx="180" cy="690" rx="209.2" ry="72.6" transform="rotate(67.5 180 690)"/><ellipse cx="180" cy="690" rx="207.4" ry="69.7" transform="rotate(78.8 180 690)"/><ellipse cx="180" cy="690" rx="205.6" ry="66.8" transform="rotate(90.0 180 690)"/><ellipse cx="180" cy="690" rx="203.8" ry="63.9" transform="rotate(101.3 180 690)"/><ellipse cx="180" cy="690" rx="202.0" ry="61.0" transform="rotate(112.5 180 690)"/><ellipse cx="180" cy="690" rx="200.2" ry="58.1" transform="rotate(123.8 180 690)"/><ellipse cx="180" cy="690" rx="198.4" ry="55.2" transform="rotate(135.0 180 690)"/><ellipse cx="180" cy="690" rx="196.6" ry="52.3" transform="rotate(146.3 180 690)"/><ellipse cx="180" cy="690" rx="194.8" ry="49.4" transform="rotate(157.5 180 690)"/><ellipse cx="180" cy="690" rx="193.0" ry="46.5" transform="rotate(168.8 180 690)"/></g>
<path d="M 210 185 A 190 190 0 0 1 210 565" fill="none" stroke="#C5CDDA" stroke-width="1.3" opacity="0.3" stroke-dasharray="6 9"/><path d="M 210 89 A 286 286 0 0 1 210 661" fill="none" stroke="#C5CDDA" stroke-width="1.3" opacity="0.3" stroke-dasharray="6 9"/><path d="M 210 -7 A 382 382 0 0 1 210 757" fill="none" stroke="#C5CDDA" stroke-width="2.6" opacity="0.85"/><path d="M 210 -103 A 478 478 0 0 1 210 853" fill="none" stroke="#C5CDDA" stroke-width="1.3" opacity="0.3" stroke-dasharray="6 9"/><path d="M 210 -199 A 574 574 0 0 1 210 949" fill="none" stroke="#C5CDDA" stroke-width="1.3" opacity="0.3" stroke-dasharray="6 9"/><line x1="250" y1="375" x2="590" y2="375" stroke="#C5CDDA" stroke-width="1.6" opacity="0.65"/><polygon points="582,366 606,375 582,384" fill="#C5CDDA" opacity=".8"/><g stroke="#fff" stroke-width="3" stroke-linecap="round" opacity=".95">
     <line x1="624" y1="359" x2="656" y2="391"/><line x1="656" y1="359" x2="624" y2="391"/></g><circle cx="210" cy="375" r="12" fill="#C5CDDA" opacity="1"/><circle cx="346.79999999999995" cy="225" r="6" fill="#C5CDDA" opacity="0.5"/><circle cx="438.8" cy="125" r="6" fill="#C5CDDA" opacity="0.4"/><circle cx="346.79999999999995" cy="525" r="6" fill="#C5CDDA" opacity="0.5"/><circle cx="438.8" cy="625" r="6" fill="#C5CDDA" opacity="0.4"/>
</svg>